<svg version="1.1" xmlns="http://www.w3.org/2000/svg" xmlns:xlink="http://www.w3.org/1999/xlink" width="200" height="50" viewBox="190 190 120 120"><g data-paper-data="{&quot;description&quot;:&quot;Logo for Recreation\n===================\n\nThis logo was generated by MarkMaker at http://emblemmatic.org/markmaker/ and may be composed of elements designed by others.\n\nThe font is Baloo Da designed by Ek Type and released under the OFL license via Google Fonts: https://www.google.com/fonts/specimen/Baloo%20Da. The font includes this copyright statement: Copyright (c) 2015, Ek Type. All rights reserved.\n\nMarkMaker uses semantic data from the Princeton University WordNet database http://wordnet.princeton.edu and font descriptions from Google Fonts https://www.google.com/fonts.&quot;}" fill="none" fill-rule="nonzero" stroke="none" stroke-width="none" stroke-linecap="butt" stroke-linejoin="miter" stroke-miterlimit="10" stroke-dasharray="" stroke-dashoffset="0" font-family="none" font-weight="none" font-size="none" text-anchor="none" style="mix-blend-mode: normal;"><path d="M50,303.1475v-106.29499h400v106.29499z" fill="none" stroke="none" stroke-width="3.5"></path><g data-paper-data="{&quot;elementType&quot;:&quot;logo&quot;}" fill="#5f615a" stroke="none" stroke-width="1"><g data-paper-data="{&quot;elementType&quot;:&quot;text&quot;}"><g data-paper-data="{&quot;baseline&quot;:71.10000000000001,&quot;elementType&quot;:&quot;row&quot;}"><g data-paper-data="{&quot;baselineProportion&quot;:0.9779917469050895,&quot;fontSize&quot;:100,&quot;baseline&quot;:71.10000000000001,&quot;elementType&quot;:&quot;word&quot;}"><path d="M91.0555,265.73959c-0.30283,0.09085 -0.77979,0.1817 -1.43087,0.27255c-0.65108,0.09085 -1.32488,0.13627 -2.02139,0.13627c-0.66623,0 -1.26432,-0.04542 -1.79427,-0.13627c-0.52995,-0.09085 -0.97663,-0.27255 -1.34002,-0.54509c-0.3634,-0.27255 -0.64351,-0.64351 -0.84035,-1.1129c-0.19684,-0.46939 -0.29526,-1.08262 -0.29526,-1.83969v-13.62735c0,-0.69651 0.1287,-1.2946 0.38611,-1.79427c0.25741,-0.49967 0.62837,-0.94634 1.1129,-1.34002c0.48453,-0.39368 1.08262,-0.7495 1.79427,-1.06748c0.71165,-0.31797 1.4763,-0.59809 2.29394,-0.84035c0.81764,-0.24226 1.66556,-0.43153 2.54377,-0.56781c0.87821,-0.13627 1.75641,-0.20441 2.63462,-0.20441c1.45358,0 2.60434,0.28012 3.45226,0.84035c0.84792,0.56024 1.27189,1.4763 1.27189,2.74818c0,0.42396 -0.06057,0.84035 -0.1817,1.24917c-0.12113,0.40882 -0.27255,0.77979 -0.45424,1.1129c-0.63594,0 -1.28703,0.03028 -1.95325,0.09085c-0.66623,0.06057 -1.31731,0.15141 -1.95325,0.27255c-0.63594,0.12113 -1.23403,0.24983 -1.79427,0.38611c-0.56024,0.13627 -1.03719,0.29526 -1.43087,0.47696z" data-paper-data="{&quot;elementType&quot;:&quot;letter&quot;,&quot;baseline&quot;:50,&quot;baselineProportion&quot;:0.984251968503937,&quot;fontSize&quot;:100}"></path><path d="M119.26411,266.5118c-1.7867,0 -3.44469,-0.24983 -4.97398,-0.7495c-1.52929,-0.49967 -2.86174,-1.24917 -3.99736,-2.24851c-1.13561,-0.99934 -2.02896,-2.25608 -2.68005,-3.77023c-0.65108,-1.51415 -0.97663,-3.28571 -0.97663,-5.31467c0,-1.99868 0.32554,-3.71724 0.97663,-5.15568c0.65108,-1.43844 1.50658,-2.61948 2.56648,-3.54311c1.0599,-0.92363 2.27122,-1.605 3.63396,-2.0441c1.36273,-0.4391 2.75575,-0.65866 4.17905,-0.65866c1.605,0 3.06615,0.24226 4.38346,0.72679c1.31731,0.48453 2.45292,1.15075 3.40684,1.99868c0.95391,0.84792 1.69585,1.8624 2.2258,3.04344c0.52995,1.18104 0.79493,2.46806 0.79493,3.86108c0,1.02962 -0.28769,1.81698 -0.86307,2.36207c-0.57538,0.54509 -1.37788,0.89335 -2.4075,1.04476l-11.21985,1.68071c0.33311,0.99934 1.01448,1.74884 2.0441,2.24851c1.02962,0.49967 2.21066,0.7495 3.54311,0.7495c1.2416,0 2.41507,-0.15899 3.5204,-0.47696c1.10533,-0.31797 2.00625,-0.68894 2.70276,-1.1129c0.48453,0.30283 0.89335,0.72679 1.22646,1.27189c0.33311,0.54509 0.49967,1.12047 0.49967,1.72613c0,1.36273 -0.63594,2.37722 -1.90783,3.04344c-0.96906,0.51481 -2.05924,0.86307 -3.27056,1.04476c-1.21132,0.1817 -2.34693,0.27255 -3.40684,0.27255M117.99222,248.65998c-0.72679,0 -1.35516,0.12113 -1.88512,0.3634c-0.52995,0.24226 -0.96149,0.55266 -1.2946,0.9312c-0.33311,0.37854 -0.58295,0.8025 -0.7495,1.27189c-0.16656,0.46939 -0.26498,0.94634 -0.29526,1.43087l7.76759,-1.27189c-0.09085,-0.60566 -0.42396,-1.21132 -0.99934,-1.81698c-0.57538,-0.60566 -1.4233,-0.90849 -2.54377,-0.90849z" data-paper-data="{&quot;elementType&quot;:&quot;letter&quot;,&quot;baseline&quot;:50.1,&quot;baselineProportion&quot;:0.9690522243713734,&quot;fontSize&quot;:100}"></path><path d="M151.42465,249.11422c-0.75707,0 -1.4763,0.12113 -2.15766,0.3634c-0.68137,0.24226 -1.27189,0.59809 -1.77156,1.06748c-0.49967,0.46939 -0.90092,1.05233 -1.20375,1.74884c-0.30283,0.69651 -0.45424,1.51415 -0.45424,2.45292c0,1.87755 0.53752,3.28571 1.61257,4.22448c1.07505,0.93877 2.38479,1.40816 3.92922,1.40816c0.90849,0 1.69585,-0.10599 2.36207,-0.31797c0.66623,-0.21198 1.25674,-0.4391 1.77156,-0.68137c0.60566,0.42396 1.0599,0.88578 1.36273,1.38545c0.30283,0.49967 0.45424,1.09776 0.45424,1.79427c0,1.2416 -0.59052,2.20309 -1.77156,2.88446c-1.18104,0.68137 -2.81632,1.02205 -4.90585,1.02205c-1.90783,0 -3.63396,-0.28012 -5.17839,-0.84035c-1.54443,-0.56024 -2.86931,-1.34759 -3.97464,-2.36207c-1.10533,-1.01448 -1.96082,-2.23337 -2.56648,-3.65667c-0.60566,-1.4233 -0.90849,-2.99802 -0.90849,-4.72415c0,-1.99868 0.32554,-3.74752 0.97663,-5.24653c0.65108,-1.49901 1.53686,-2.73304 2.65733,-3.7021c1.12047,-0.96906 2.41507,-1.69585 3.88379,-2.18038c1.46873,-0.48453 3.02073,-0.72679 4.65601,-0.72679c2.18038,0 3.86108,0.39368 5.04212,1.18104c1.18104,0.78736 1.77156,1.80184 1.77156,3.04344c0,0.57538 -0.13627,1.1129 -0.40882,1.61257c-0.27255,0.49967 -0.59052,0.9312 -0.95391,1.2946c-0.51481,-0.24226 -1.13561,-0.47696 -1.8624,-0.70408c-0.72679,-0.22712 -1.51415,-0.34068 -2.36207,-0.34068z" data-paper-data="{&quot;elementType&quot;:&quot;letter&quot;,&quot;baseline&quot;:50.1,&quot;baselineProportion&quot;:0.9709302325581395,&quot;fontSize&quot;:100}"></path><path d="M175.36336,265.73959c-0.30283,0.09085 -0.77979,0.1817 -1.43087,0.27255c-0.65108,0.09085 -1.32488,0.13627 -2.02139,0.13627c-0.66623,0 -1.26432,-0.04542 -1.79427,-0.13627c-0.52995,-0.09085 -0.97663,-0.27255 -1.34002,-0.54509c-0.3634,-0.27255 -0.64351,-0.64351 -0.84035,-1.1129c-0.19684,-0.46939 -0.29526,-1.08262 -0.29526,-1.83969v-13.62735c0,-0.69651 0.1287,-1.2946 0.38611,-1.79427c0.25741,-0.49967 0.62837,-0.94634 1.1129,-1.34002c0.48453,-0.39368 1.08262,-0.7495 1.79427,-1.06748c0.71165,-0.31797 1.4763,-0.59809 2.29394,-0.84035c0.81764,-0.24226 1.66556,-0.43153 2.54377,-0.56781c0.87821,-0.13627 1.75641,-0.20441 2.63462,-0.20441c1.45358,0 2.60434,0.28012 3.45226,0.84035c0.84792,0.56024 1.27189,1.4763 1.27189,2.74818c0,0.42396 -0.06057,0.84035 -0.1817,1.24917c-0.12113,0.40882 -0.27255,0.77979 -0.45424,1.1129c-0.63594,0 -1.28703,0.03028 -1.95325,0.09085c-0.66623,0.06057 -1.31731,0.15141 -1.95325,0.27255c-0.63594,0.12113 -1.23403,0.24983 -1.79427,0.38611c-0.56024,0.13627 -1.03719,0.29526 -1.43087,0.47696z" data-paper-data="{&quot;elementType&quot;:&quot;letter&quot;,&quot;baseline&quot;:50,&quot;baselineProportion&quot;:0.984251968503937,&quot;fontSize&quot;:100}"></path><path d="M203.57197,266.5118c-1.7867,0 -3.44469,-0.24983 -4.97398,-0.7495c-1.52929,-0.49967 -2.86174,-1.24917 -3.99736,-2.24851c-1.13561,-0.99934 -2.02896,-2.25608 -2.68005,-3.77023c-0.65108,-1.51415 -0.97663,-3.28571 -0.97663,-5.31467c0,-1.99868 0.32554,-3.71724 0.97663,-5.15568c0.65108,-1.43844 1.50658,-2.61948 2.56648,-3.54311c1.0599,-0.92363 2.27122,-1.605 3.63396,-2.0441c1.36273,-0.4391 2.75575,-0.65866 4.17905,-0.65866c1.605,0 3.06615,0.24226 4.38346,0.72679c1.31731,0.48453 2.45292,1.15075 3.40684,1.99868c0.95391,0.84792 1.69585,1.8624 2.2258,3.04344c0.52995,1.18104 0.79493,2.46806 0.79493,3.86108c0,1.02962 -0.28769,1.81698 -0.86307,2.36207c-0.57538,0.54509 -1.37788,0.89335 -2.4075,1.04476l-11.21985,1.68071c0.33311,0.99934 1.01448,1.74884 2.0441,2.24851c1.02962,0.49967 2.21066,0.7495 3.54311,0.7495c1.2416,0 2.41507,-0.15899 3.5204,-0.47696c1.10533,-0.31797 2.00625,-0.68894 2.70276,-1.1129c0.48453,0.30283 0.89335,0.72679 1.22646,1.27189c0.33311,0.54509 0.49967,1.12047 0.49967,1.72613c0,1.36273 -0.63594,2.37722 -1.90783,3.04344c-0.96906,0.51481 -2.05924,0.86307 -3.27056,1.04476c-1.21132,0.1817 -2.34693,0.27255 -3.40684,0.27255M202.30008,248.65998c-0.72679,0 -1.35516,0.12113 -1.88512,0.3634c-0.52995,0.24226 -0.96149,0.55266 -1.2946,0.9312c-0.33311,0.37854 -0.58295,0.8025 -0.7495,1.27189c-0.16656,0.46939 -0.26498,0.94634 -0.29526,1.43087l7.76759,-1.27189c-0.09085,-0.60566 -0.42396,-1.21132 -0.99934,-1.81698c-0.57538,-0.60566 -1.4233,-0.90849 -2.54377,-0.90849z" data-paper-data="{&quot;elementType&quot;:&quot;letter&quot;,&quot;baseline&quot;:50.1,&quot;baselineProportion&quot;:0.9690522243713734,&quot;fontSize&quot;:100}"></path><path d="M232.3711,243.02734c1.63528,0 3.12672,0.16656 4.47431,0.49967c1.34759,0.33311 2.49835,0.84035 3.45226,1.52172c0.95391,0.68137 1.68828,1.54443 2.20309,2.5892c0.51481,1.04476 0.77222,2.2788 0.77222,3.7021v10.17509c0,0.78736 -0.21955,1.43087 -0.65866,1.93054c-0.4391,0.49967 -0.96149,0.9312 -1.56715,1.2946c-1.96839,1.18104 -4.73929,1.77156 -8.31268,1.77156c-1.605,0 -3.05101,-0.15141 -4.33804,-0.45424c-1.28703,-0.30283 -2.39236,-0.75707 -3.31599,-1.36273c-0.92363,-0.60566 -1.63528,-1.37788 -2.13495,-2.31665c-0.49967,-0.93877 -0.7495,-2.02896 -0.7495,-3.27056c0,-2.08953 0.6208,-3.69453 1.8624,-4.815c1.2416,-1.12047 3.16457,-1.81698 5.76891,-2.08953l5.95061,-0.63594v-0.31797c0,-0.87821 -0.38611,-1.50658 -1.15832,-1.88512c-0.77222,-0.37854 -1.88512,-0.56781 -3.3387,-0.56781c-1.15075,0 -2.27122,0.12113 -3.36141,0.3634c-1.09019,0.24226 -2.07439,0.54509 -2.95259,0.90849c-0.39368,-0.27255 -0.72679,-0.68894 -0.99934,-1.24917c-0.27255,-0.56024 -0.40882,-1.14318 -0.40882,-1.74884c0,-0.78736 0.18927,-1.41573 0.56781,-1.88512c0.37854,-0.46939 0.96149,-0.87064 1.74884,-1.20375c0.87821,-0.33311 1.9154,-0.57538 3.11158,-0.72679c1.19618,-0.15141 2.32422,-0.22712 3.38412,-0.22712zM232.73449,260.87917c0.51481,0 1.08262,-0.053 1.70342,-0.15899c0.6208,-0.10599 1.08262,-0.24983 1.38545,-0.43153v-3.63396l-3.27056,0.27255c-0.84792,0.06057 -1.54443,0.24226 -2.08953,0.54509c-0.54509,0.30283 -0.81764,0.75707 -0.81764,1.36273c0,0.60566 0.23469,1.09776 0.70408,1.4763c0.46939,0.37854 1.26432,0.56781 2.38479,0.56781" data-paper-data="{&quot;elementType&quot;:&quot;letter&quot;,&quot;baseline&quot;:50.1,&quot;baselineProportion&quot;:0.9690522243713734,&quot;fontSize&quot;:100}"></path><path d="M262.16956,258.19912c0,0.78736 0.24983,1.34759 0.7495,1.68071c0.49967,0.33311 1.20375,0.49967 2.11224,0.49967c0.45424,0 0.92363,-0.03785 1.40816,-0.11356c0.48453,-0.07571 0.90849,-0.17413 1.27189,-0.29526c0.27255,0.33311 0.50724,0.70408 0.70408,1.1129c0.19684,0.40882 0.29526,0.90092 0.29526,1.4763c0,1.15075 -0.43153,2.08953 -1.2946,2.81632c-0.86307,0.72679 -2.38479,1.09019 -4.56516,1.09019c-2.6649,0 -4.71658,-0.60566 -6.15502,-1.81698c-1.43844,-1.21132 -2.15766,-3.17971 -2.15766,-5.90518v-19.44168c0.33311,-0.09085 0.81007,-0.18927 1.43087,-0.29526c0.6208,-0.10599 1.27946,-0.15899 1.97597,-0.15899c1.33245,0 2.36964,0.23469 3.11158,0.70408c0.74193,0.46939 1.1129,1.46115 1.1129,2.9753v2.90717h5.95061c0.1817,0.33311 0.35583,0.7495 0.52238,1.24917c0.16656,0.49967 0.24983,1.05233 0.24983,1.65799c0,1.0599 -0.23469,1.82455 -0.70408,2.29394c-0.46939,0.46939 -1.09776,0.70408 -1.88512,0.70408h-4.13363z" data-paper-data="{&quot;elementType&quot;:&quot;letter&quot;,&quot;baseline&quot;:59.300000000000004,&quot;baselineProportion&quot;:0.975328947368421,&quot;fontSize&quot;:100}"></path><path d="M286.97134,265.73959c-0.33311,0.06057 -0.82521,0.14384 -1.4763,0.24983c-0.65108,0.10599 -1.30974,0.15899 -1.97597,0.15899c-0.66623,0 -1.26432,-0.04542 -1.79427,-0.13627c-0.52995,-0.09085 -0.97663,-0.27255 -1.34002,-0.54509c-0.3634,-0.27255 -0.64351,-0.64351 -0.84035,-1.1129c-0.19684,-0.46939 -0.29526,-1.08262 -0.29526,-1.83969v-18.48777c0.33311,-0.06057 0.82521,-0.14384 1.4763,-0.24983c0.65108,-0.10599 1.30974,-0.15899 1.97597,-0.15899c0.66623,0 1.26432,0.04542 1.79427,0.13627c0.52995,0.09085 0.97663,0.27255 1.34002,0.54509c0.3634,0.27255 0.64351,0.64351 0.84035,1.1129c0.19684,0.46939 0.29526,1.08262 0.29526,1.83969zM278.88578,237.5764c0,-1.15075 0.38611,-2.11981 1.15832,-2.90717c0.77222,-0.78736 1.79427,-1.18104 3.06615,-1.18104c1.27189,0 2.29394,0.39368 3.06615,1.18104c0.77222,0.78736 1.15832,1.75641 1.15832,2.90717c0,1.15075 -0.38611,2.11981 -1.15832,2.90717c-0.77222,0.78736 -1.79427,1.18104 -3.06615,1.18104c-1.27189,0 -2.29394,-0.39368 -3.06615,-1.18104c-0.77222,-0.78736 -1.15832,-1.75641 -1.15832,-2.90717" data-paper-data="{&quot;elementType&quot;:&quot;letter&quot;,&quot;baseline&quot;:71.10000000000001,&quot;baselineProportion&quot;:0.9888734353268429,&quot;fontSize&quot;:100}"></path><path d="M321.17598,254.74686c0,1.87755 -0.28769,3.55068 -0.86307,5.01941c-0.57538,1.46873 -1.38545,2.70276 -2.43021,3.7021c-1.04476,0.99934 -2.29394,1.75641 -3.74752,2.27122c-1.45358,0.51481 -3.07372,0.77222 -4.86042,0.77222c-1.7867,0 -3.40684,-0.27255 -4.86042,-0.81764c-1.45358,-0.54509 -2.70276,-1.32488 -3.74752,-2.33936c-1.04476,-1.01448 -1.85483,-2.24851 -2.43021,-3.7021c-0.57538,-1.45358 -0.86307,-3.08887 -0.86307,-4.90585c0,-1.7867 0.28769,-3.40684 0.86307,-4.86042c0.57538,-1.45358 1.38545,-2.68762 2.43021,-3.7021c1.04476,-1.01448 2.29394,-1.79427 3.74752,-2.33936c1.45358,-0.54509 3.07372,-0.81764 4.86042,-0.81764c1.7867,0 3.40684,0.28012 4.86042,0.84035c1.45358,0.56024 2.70276,1.34759 3.74752,2.36207c1.04476,1.01448 1.85483,2.24851 2.43021,3.7021c0.57538,1.45358 0.86307,3.05858 0.86307,4.815M305.27741,254.74686c0,1.84726 0.35583,3.26299 1.06748,4.24719c0.71165,0.9842 1.70342,1.4763 2.9753,1.4763c1.27189,0 2.24851,-0.49967 2.92988,-1.49901c0.68137,-0.99934 1.02205,-2.4075 1.02205,-4.22448c0,-1.81698 -0.34825,-3.21757 -1.04476,-4.20177c-0.69651,-0.9842 -1.68071,-1.4763 -2.95259,-1.4763c-1.27189,0 -2.25608,0.4921 -2.95259,1.4763c-0.69651,0.9842 -1.04476,2.38479 -1.04476,4.20177z" data-paper-data="{&quot;elementType&quot;:&quot;letter&quot;,&quot;baseline&quot;:50.1,&quot;baselineProportion&quot;:0.9690522243713734,&quot;fontSize&quot;:100}"></path><path d="M345.38723,251.79427c0,-0.93877 -0.26498,-1.62771 -0.79493,-2.06681c-0.52995,-0.4391 -1.24917,-0.65866 -2.15766,-0.65866c-0.60566,0 -1.20375,0.07571 -1.79427,0.22712c-0.59052,0.15141 -1.09776,0.37854 -1.52172,0.68137v15.7623c-0.30283,0.09085 -0.77979,0.1817 -1.43087,0.27255c-0.65108,0.09085 -1.32488,0.13627 -2.02139,0.13627c-0.66623,0 -1.26432,-0.04542 -1.79427,-0.13627c-0.52995,-0.09085 -0.97663,-0.27255 -1.34002,-0.54509c-0.3634,-0.27255 -0.64351,-0.64351 -0.84035,-1.1129c-0.19684,-0.46939 -0.29526,-1.08262 -0.29526,-1.83969v-13.62735c0,-0.81764 0.17413,-1.48387 0.52238,-1.99868c0.34825,-0.51481 0.82521,-0.9842 1.43087,-1.40816c1.02962,-0.72679 2.32422,-1.31731 3.88379,-1.77156c1.55957,-0.45424 3.29328,-0.68137 5.2011,-0.68137c3.42198,0 6.0566,0.7495 7.90386,2.24851c1.84726,1.49901 2.77089,3.58096 2.77089,6.24587v14.21787c-0.30283,0.09085 -0.77979,0.1817 -1.43087,0.27255c-0.65108,0.09085 -1.32488,0.13627 -2.02139,0.13627c-0.66623,0 -1.26432,-0.04542 -1.79427,-0.13627c-0.52995,-0.09085 -0.97663,-0.27255 -1.34002,-0.54509c-0.3634,-0.27255 -0.64351,-0.64351 -0.84035,-1.1129c-0.19684,-0.46939 -0.29526,-1.08262 -0.29526,-1.83969z" data-paper-data="{&quot;elementType&quot;:&quot;letter&quot;,&quot;baseline&quot;:50.1,&quot;baselineProportion&quot;:0.9842829076620826,&quot;fontSize&quot;:100}"></path></g></g></g></g><g data-paper-data="{&quot;elementType&quot;:&quot;emblem&quot;}" fill="#5f615a" stroke="none" stroke-width="1"><g data-paper-data="{&quot;baselineProportion&quot;:0.9734375000000001,&quot;fontSize&quot;:100,&quot;baseline&quot;:62.300000000000004,&quot;elementType&quot;:&quot;word&quot;}"><path d="M371.27985,256.62536v11.8885c-0.45407,0.12384 -1.16615,0.24768 -2.13621,0.37152c-0.97007,0.12384 -1.92982,0.18576 -2.87925,0.18576c-0.94943,0 -1.78534,-0.07224 -2.50773,-0.21672c-0.72239,-0.14448 -1.32094,-0.40248 -1.79566,-0.77399c-0.47471,-0.37152 -0.83591,-0.88751 -1.08359,-1.54798c-0.24768,-0.66047 -0.37152,-1.52734 -0.37152,-2.60061v-29.16397c0,-0.86687 0.23736,-1.53766 0.71207,-2.01238c0.47471,-0.47471 1.12487,-0.85655 1.95046,-1.14551c1.4035,-0.49535 3.03404,-0.85655 4.89162,-1.08359c1.85758,-0.22704 3.83899,-0.34056 5.94425,-0.34056c5.69657,0 9.98964,1.19711 12.87921,3.59132c2.88957,2.39421 4.33435,5.63465 4.33435,9.72132c0,2.55933 -0.66047,4.74714 -1.98142,6.56344c-1.32094,1.8163 -2.88957,3.2198 -4.70586,4.21051c1.48606,2.0227 2.95148,3.92155 4.39627,5.69657c1.44478,1.77502 2.57997,3.38492 3.40556,4.8297c-0.4128,1.44478 -1.16615,2.54901 -2.26005,3.31268c-1.09391,0.76367 -2.32197,1.14551 -3.6842,1.14551c-0.90815,0 -1.69246,-0.1032 -2.35293,-0.3096c-0.66047,-0.2064 -1.23839,-0.49535 -1.73374,-0.86687c-0.49535,-0.37152 -0.94943,-0.82559 -1.36222,-1.36222c-0.4128,-0.53663 -0.80495,-1.11455 -1.17647,-1.73374l-5.20122,-8.3591h-3.28172M375.18076,248.3901c1.56862,0 2.80701,-0.40248 3.71516,-1.20743c0.90815,-0.80495 1.36222,-1.99174 1.36222,-3.56036c0,-1.56862 -0.50567,-2.75541 -1.51702,-3.56036c-1.01135,-0.80495 -2.61093,-1.20743 -4.79874,-1.20743c-0.61919,0 -1.11455,0.02064 -1.48606,0.06192c-0.37152,0.04128 -0.78431,0.1032 -1.23839,0.18576v9.28789z" data-paper-data="{&quot;elementType&quot;:&quot;letter&quot;,&quot;baseline&quot;:62.300000000000004,&quot;baselineProportion&quot;:0.9873217115689382,&quot;fontSize&quot;:100}"></path><path d="M404.65433,263.74608c0,-1.73374 0.53663,-3.17852 1.6099,-4.33435c1.07327,-1.15583 2.53869,-1.73374 4.39627,-1.73374c1.85758,0 3.323,0.57791 4.39627,1.73374c1.07327,1.15583 1.6099,2.60061 1.6099,4.33435c0,1.73374 -0.53663,3.17852 -1.6099,4.33435c-1.07327,1.15583 -2.53869,1.73374 -4.39627,1.73374c-1.85758,0 -3.323,-0.57791 -4.39627,-1.73374c-1.07327,-1.15583 -1.6099,-2.60061 -1.6099,-4.33435z" data-paper-data="{&quot;elementType&quot;:&quot;letter&quot;,&quot;baseline&quot;:17.900000000000006,&quot;baselineProportion&quot;:0.9132653061224488,&quot;fontSize&quot;:100}"></path></g></g></g></svg>