<svg xmlns="http://www.w3.org/2000/svg" height="48" viewBox="0 96 960 960" width="48"><path d="M480 557.076q-63.212 0-103.451-40.24-40.24-40.239-40.24-103.451 0-63.597 40.24-103.644Q416.788 269.694 480 269.694q63.212 0 103.451 40.047 40.24 40.047 40.24 103.644 0 63.212-40.24 103.451-40.239 40.24-103.451 40.24Zm-314.999 341.23v-90.922q0-35.23 18.171-61.528 18.171-26.298 47.291-40.394 65.153-30.077 126.722-44.808 61.569-14.73 122.769-14.73t122.507 15.038q61.308 15.038 126.461 44.5 29.735 14.096 47.906 40.394t18.171 61.528v90.922H165.001Z"/></svg>