<svg xmlns="http://www.w3.org/2000/svg" height="48" viewBox="0 96 960 960" width="48"><path d="M480 557.076q-63.212 0-103.451-40.24-40.24-40.239-40.24-103.643 0-63.405 40.24-103.452Q416.788 269.694 480 269.694q63.212 0 103.451 40.047 40.24 40.047 40.24 103.452 0 63.404-40.24 103.643-40.239 40.24-103.451 40.24Zm-314.999 341.23v-90.922q0-35.23 18.171-61.528 18.171-26.298 47.291-40.394 65.153-30.077 126.71-44.808 61.557-14.73 122.769-14.73t122.519 15.038Q663.769 676 728.672 705.734q30.186 14.062 48.256 40.241 18.071 26.179 18.071 61.409v90.922H165.001Zm58.384-58.384h513.23v-32.538q0-15.615-8.71-29.097-8.709-13.482-22.983-20.288-59.999-28.692-114.302-41.192-54.302-12.5-110.62-12.5-56.318 0-110.928 12.5t-113.61 41.192q-14.923 7.154-23.5 20.272-8.577 13.118-8.577 29.113v32.538ZM480 498.693q36.461 0 60.884-24.424 24.423-24.423 24.423-60.884t-24.423-60.884Q516.461 328.078 480 328.078t-60.884 24.423q-24.423 24.423-24.423 60.884t24.423 60.884q24.423 24.424 60.884 24.424Zm0-85.308Zm0 426.537Z"/></svg>