<svg xmlns="http://www.w3.org/2000/svg" height="48" viewBox="0 96 960 960" width="48"><path d="M795.615 931.46 535.077 670.922q-30.848 26.414-72.61 40.207t-83.875 13.793q-108.311 0-181.874-73.514-73.563-73.514-73.563-179.999t73.514-180.062q73.514-73.577 179.719-73.577 106.206 0 180.255 73.533 74.048 73.532 74.048 180.054 0 43.028-13.884 83.335-13.885 40.308-41.116 73.615l262.154 260.539-42.23 42.614ZM377.039 666.539q82.455 0 138.862-56.407 56.407-56.408 56.407-138.786t-56.319-138.785q-56.319-56.407-138.862-56.407-83.056 0-139.322 56.407-56.266 56.407-56.266 138.785t56.266 138.786q56.266 56.407 139.234 56.407Z"/></svg>