<svg xmlns="http://www.w3.org/2000/svg" height="48" viewBox="0 96 960 960" width="48"><path d="M480.208 723.768q69.638 0 118.599-49.169 48.961-49.17 48.961-118.807 0-69.638-49.169-118.599-49.17-48.961-118.807-48.961-69.638 0-118.599 49.169-48.961 49.17-48.961 118.807 0 69.638 49.169 118.599 49.17 48.961 118.807 48.961Zm-.629-55.922q-46.194 0-78.81-33.036-32.615-33.036-32.615-79.231 0-46.194 33.036-78.81 33.036-32.615 79.231-32.615 46.194 0 78.81 33.036 32.615 33.036 32.615 79.231 0 46.194-33.036 78.81-33.036 32.615-79.231 32.615Zm.476 183.153q-143.593 0-261.323-81.038Q101.001 688.922 43.54 556q57.461-132.922 175.137-213.961 117.675-81.038 261.268-81.038 143.593 0 261.323 81.038Q858.999 423.078 916.46 556q-57.461 132.922-175.137 213.961-117.675 81.038-261.268 81.038ZM480 556Zm-.169 236.615q121.246 0 221.195-63.851T854.461 556q-53.486-108.913-153.266-172.764-99.781-63.851-221.026-63.851-121.246 0-221.695 63.851T104.924 556q53.101 108.913 153.381 172.764 100.281 63.851 221.526 63.851Z"/></svg>
